<?xml version="1.0" encoding="UTF-8"?>
<!DOCTYPE svg PUBLIC "-//W3C//DTD SVG 1.1//EN" "http://www.w3.org/Graphics/SVG/1.1/DTD/svg11.dtd">
<svg xmlns="http://www.w3.org/2000/svg" version="1.1" width="99px" height="92px" style="shape-rendering:geometricPrecision; text-rendering:geometricPrecision; image-rendering:optimizeQuality; fill-rule:evenodd; clip-rule:evenodd" xmlns:xlink="http://www.w3.org/1999/xlink">
<g><path style="opacity:1" fill="#0f1220" d="M -0.5,-0.5 C 32.1667,-0.5 64.8333,-0.5 97.5,-0.5C 97.818,30.2104 97.4847,60.8771 96.5,91.5C 64.1667,91.5 31.8333,91.5 -0.5,91.5C -0.5,60.8333 -0.5,30.1667 -0.5,-0.5 Z"/></g>
<g><path style="opacity:1" fill="#303339" d="M 97.5,-0.5 C 97.8333,-0.5 98.1667,-0.5 98.5,-0.5C 98.5,30.1667 98.5,60.8333 98.5,91.5C 97.8333,91.5 97.1667,91.5 96.5,91.5C 97.4847,60.8771 97.818,30.2104 97.5,-0.5 Z"/></g>
<g><path style="opacity:1" fill="#58c8d1" d="M 37.5,21.5 C 39.337,21.6395 39.6704,22.3061 38.5,23.5C 36.9291,22.6906 35.2624,22.3573 33.5,22.5C 33.8993,21.4789 35.2326,21.1455 37.5,21.5 Z"/></g>
<g><path style="opacity:1" fill="#4dadb7" d="M 43.5,19.5 C 48.9922,18.9962 52.6589,21.3295 54.5,26.5C 53.721,28.7758 52.721,30.9425 51.5,33C 51.6448,33.772 51.9781,34.4387 52.5,35C 54.9012,35.795 57.0679,36.9617 59,38.5C 59.8236,41.8823 59.657,45.2156 58.5,48.5C 57.6786,45.5535 57.1786,42.5535 57,39.5C 55.2002,37.683 53.0336,36.5163 50.5,36C 49.1667,34.3333 49.1667,32.6667 50.5,31C 48.5,30.3333 46.5,30.3333 44.5,31C 45.7472,32.4936 45.7472,33.9936 44.5,35.5C 42.5,36.5 40.5,37.5 38.5,38.5C 36.684,51.7852 35.8506,51.7852 36,38.5C 37.9321,36.9617 40.0988,35.795 42.5,35C 43.0219,34.4387 43.3552,33.772 43.5,33C 42.279,30.9425 41.279,28.7758 40.5,26.5C 41.8709,24.3189 42.8709,21.9856 43.5,19.5 Z"/></g>
<g><path style="opacity:1" fill="#0f1221" d="M 42.5,24.5 C 45.8333,24.5 49.1667,24.5 52.5,24.5C 52.5,25.8333 52.5,27.1667 52.5,28.5C 49.1667,28.5 45.8333,28.5 42.5,28.5C 42.5,27.1667 42.5,25.8333 42.5,24.5 Z"/></g>
<g><path style="opacity:1" fill="#53bdc6" d="M 55.5,21.5 C 58.1667,21.5 60.8333,21.5 63.5,21.5C 63.5,22.5 63.5,23.5 63.5,24.5C 64.8333,24.5 66.1667,24.5 67.5,24.5C 67.5,27.1667 67.5,29.8333 67.5,32.5C 65.5,33.1667 63.5,33.8333 61.5,34.5C 61.5041,36.8421 62.3375,38.8421 64,40.5C 64.6667,43.1667 64.6667,45.8333 64,48.5C 63.7602,43.8587 62.2602,39.692 59.5,36C 59.8198,34.3468 60.8198,33.3468 62.5,33C 61.0267,32.2904 60.3601,31.1238 60.5,29.5C 58.712,29.7852 57.0453,29.4519 55.5,28.5C 58.0485,27.7158 60.3819,26.5492 62.5,25C 60.7881,22.4806 58.6214,21.9806 56,23.5C 55.5357,22.9056 55.369,22.2389 55.5,21.5 Z"/></g>
<g><path style="opacity:1" fill="#192835" d="M 61.5,27.5 C 62.5676,26.5655 63.901,26.2322 65.5,26.5C 65.5,27.8333 65.5,29.1667 65.5,30.5C 64.1266,30.6567 62.7932,30.49 61.5,30C 62.7736,29.0228 62.7736,28.1894 61.5,27.5 Z"/></g>
<g><path style="opacity:1" fill="#51b7c1" d="M 37.5,21.5 C 35.2326,21.1455 33.8993,21.4789 33.5,22.5C 33.5858,23.4959 33.2524,24.3292 32.5,25C 34.6181,26.5492 36.9515,27.7158 39.5,28.5C 37.9547,29.4519 36.288,29.7852 34.5,29.5C 34.6399,31.1238 33.9733,32.2904 32.5,33C 34.032,33.6995 35.032,34.8662 35.5,36.5C 32.6037,39.9622 31.1037,43.9622 31,48.5C 29.8864,44.0502 30.7197,40.0502 33.5,36.5C 31.8669,34.497 29.8669,33.1637 27.5,32.5C 27.5,29.8333 27.5,27.1667 27.5,24.5C 28.8333,24.5 30.1667,24.5 31.5,24.5C 31.5,23.1667 31.5,21.8333 31.5,20.5C 33.7354,20.2053 35.7354,20.5386 37.5,21.5 Z"/></g>
<g><path style="opacity:1" fill="#15212f" d="M 28.5,26.5 C 29.8734,26.3433 31.2068,26.51 32.5,27C 31.1667,28 31.1667,29 32.5,30C 31.2068,30.49 29.8734,30.6567 28.5,30.5C 28.5,29.1667 28.5,27.8333 28.5,26.5 Z"/></g>
<g><path style="opacity:1" fill="#afafb4" d="M 20.5,53.5 C 21.7251,54.1522 22.3917,55.3189 22.5,57C 22.1667,58.1667 21.8333,59.3333 21.5,60.5C 20.5258,58.2573 20.1924,55.924 20.5,53.5 Z"/></g>
<g><path style="opacity:1" fill="#f9f9f9" d="M 29.5,54.5 C 30.9464,53.3871 32.6131,53.2204 34.5,54C 32.9544,55.4396 32.121,57.2729 32,59.5C 31.9504,57.256 31.1171,55.5893 29.5,54.5 Z"/></g>
<g><path style="opacity:1" fill="#bcbcc1" d="M 35.5,53.5 C 36.9986,54.6782 37.9986,56.3449 38.5,58.5C 39.1667,56.8333 39.8333,55.1667 40.5,53.5C 41.9097,55.9492 41.5763,58.1159 39.5,60C 38.2161,60.6838 37.0495,60.5171 36,59.5C 35.5045,57.5273 35.3379,55.5273 35.5,53.5 Z"/></g>
<g><path style="opacity:1" fill="#c3c3c7" d="M 42.5,53.5 C 44.1667,53.5 45.8333,53.5 47.5,53.5C 46.5924,55.8911 46.4257,58.2244 47,60.5C 45.6841,57.972 44.5174,57.972 43.5,60.5C 42.5258,58.2573 42.1924,55.924 42.5,53.5 Z"/></g>
<g><path style="opacity:1" fill="#f9f9fa" d="M 58.5,54.5 C 59.9464,53.3871 61.6131,53.2204 63.5,54C 61.9544,55.4396 61.121,57.2729 61,59.5C 60.9504,57.256 60.1171,55.5893 58.5,54.5 Z"/></g>
<g><path style="opacity:1" fill="#d1d1d4" d="M 64.5,53.5 C 65.8734,53.3433 67.2068,53.51 68.5,54C 66.0087,54.6259 66.0087,55.4593 68.5,56.5C 67.9747,57.1924 67.3081,57.6924 66.5,58C 67.3081,58.3076 67.9747,58.8076 68.5,59.5C 67.3112,60.4287 65.9778,60.762 64.5,60.5C 64.5,58.1667 64.5,55.8333 64.5,53.5 Z"/></g>
<g><path style="opacity:1" fill="#e6e6e8" d="M 52.5,57.5 C 49.9028,57.7208 49.9028,58.2208 52.5,59C 51.552,59.4828 50.552,59.6495 49.5,59.5C 49.5,57.5 49.5,55.5 49.5,53.5C 52.5983,53.4125 52.9316,53.9125 50.5,55C 51.756,55.4169 52.4226,56.2502 52.5,57.5 Z"/></g>
<g><path style="opacity:1" fill="#444652" d="M 52.5,57.5 C 52.4226,56.2502 51.756,55.4169 50.5,55C 52.9316,53.9125 52.5983,53.4125 49.5,53.5C 49.5,55.5 49.5,57.5 49.5,59.5C 48.5318,57.3926 48.1984,55.0593 48.5,52.5C 50.1667,52.5 51.8333,52.5 53.5,52.5C 53.7845,54.4147 53.4511,56.0813 52.5,57.5 Z"/></g>
<g><path style="opacity:1" fill="#c7c7ca" d="M 11.5,53.5 C 13.3841,53.7118 14.7174,54.7118 15.5,56.5C 16.2807,55.2634 17.2807,54.2634 18.5,53.5C 19.8333,55.8333 19.8333,58.1667 18.5,60.5C 17.7492,59.624 17.2492,58.624 17,57.5C 15.4705,58.5833 13.9705,59.5833 12.5,60.5C 11.5258,58.2573 11.1924,55.924 11.5,53.5 Z"/></g>
<g><path style="opacity:1" fill="#c4c4c8" d="M 23.5,54.5 C 24.8967,54.2048 26.3967,53.8714 28,53.5C 28.4922,54.549 28.3256,55.549 27.5,56.5C 30.2592,60.056 29.9259,60.7227 26.5,58.5C 23.0741,60.7227 22.7408,60.056 25.5,56.5C 25.1445,55.4777 24.4778,54.811 23.5,54.5 Z"/></g>
<g><path style="opacity:1" fill="#bfbfc3" d="M 77.5,53.5 C 78.7348,53.7214 79.7348,54.3881 80.5,55.5C 81.1667,54.8333 81.8333,54.1667 82.5,53.5C 83.8333,55.8333 83.8333,58.1667 82.5,60.5C 81.1667,56.5 79.8333,56.5 78.5,60.5C 77.5258,58.2573 77.1924,55.924 77.5,53.5 Z"/></g>
<g><path style="opacity:1" fill="#8c8c94" d="M 54.5,56.5 C 55.675,56.281 56.675,56.6143 57.5,57.5C 55.9483,58.7979 54.9483,58.4646 54.5,56.5 Z"/></g>
<g><path style="opacity:1" fill="#c7c7cb" d="M 70.5,53.5 C 72.7505,53.1814 74.7505,53.6814 76.5,55C 75.451,55.4922 74.451,55.3256 73.5,54.5C 70.8333,55.8333 70.8333,57.1667 73.5,58.5C 75.5294,57.3707 75.8627,57.8707 74.5,60C 69.7954,60.1057 68.4621,57.939 70.5,53.5 Z"/></g>
</svg>
